<?xml version="1.0" encoding="UTF-8"?>
<!DOCTYPE svg PUBLIC "-//W3C//DTD SVG 1.1//EN" "http://www.w3.org/Graphics/SVG/1.1/DTD/svg11.dtd">
<!-- Creator: CorelDRAW X6 -->
<svg xmlns="http://www.w3.org/2000/svg" xml:space="preserve" width="594mm" height="841mm" version="1.1" style="shape-rendering:geometricPrecision; text-rendering:geometricPrecision; image-rendering:optimizeQuality; fill-rule:evenodd; clip-rule:evenodd"
viewBox="0 0 59400 84100"
 xmlns:xlink="http://www.w3.org/1999/xlink">
 <defs>
  <style type="text/css">
   <![CDATA[
    .str0 {stroke:#2B2A29;stroke-width:1000}
    .fil2 {fill:#737373}
    .fil4 {fill:#FEFEFE}
    .fil3 {fill:url(#id0)}
    .fil5 {fill:url(#id1)}
    .fil0 {fill:url(#id2)}
    .fil1 {fill:url(#id3)}
   ]]>
  </style>
  <radialGradient id="id0" gradientUnits="userSpaceOnUse" cx="30554.6" cy="33580.5" r="8865.01" fx="30554.6" fy="33580.5">
   <stop offset="0" style="stop-color:#898989"/>
   <stop offset="0.670588" style="stop-color:#615D87"/>
   <stop offset="1" style="stop-color:#393185"/>
  </radialGradient>
  <radialGradient id="id1" gradientUnits="userSpaceOnUse" cx="31558.3" cy="32386.3" r="7819.9" fx="31558.3" fy="32386.3">
   <stop offset="0" style="stop-color:#FEFEFE"/>
   <stop offset="0.670588" style="stop-color:#FFEF7F"/>
   <stop offset="1" style="stop-color:#FFE100"/>
  </radialGradient>
  <radialGradient id="id2" gradientUnits="userSpaceOnUse" cx="29637.7" cy="33981.2" r="27744.8" fx="29637.7" fy="33981.2">
   <stop offset="0" style="stop-color:#898989"/>
   <stop offset="0.321569" style="stop-color:#615D87"/>
   <stop offset="1" style="stop-color:#393185"/>
  </radialGradient>
  <radialGradient id="id3" gradientUnits="userSpaceOnUse" cx="25459.4" cy="39549.8" r="23027.5" fx="25459.4" fy="39549.8">
   <stop offset="0" style="stop-color:#FEFEFE"/>
   <stop offset="0.321569" style="stop-color:#FFF17F"/>
   <stop offset="1" style="stop-color:#FFE500"/>
  </radialGradient>
 </defs>
 <g id="Layer_x0020_1">
  <metadata id="CorelCorpID_0Corel-Layer"/>
  <polygon class="fil0 str0" points="30535,11230 25972,23281 16076,19577 20204,28785 8103,33763 20045,38310 15653,47464 25707,44078 30588,66720 35126,44236 45128,47570 41053,38098 52967,33763 40947,29049 45075,19842 35074,23175 "/>
  <path class="fil1 str0" d="M16565 20667l3680 8119 -12101 4978 11943 4547 -4392 9155 10054 -3387 4881 22643 4544 -22421 9045 2911 -6669 -6813c-43,2 -86,3 -129,3 -381,0 -737,-106 -1039,-291l-1051 0c-158,0 -312,-18 -460,-53 -102,-17 -201,-41 -297,-73 -747,368 -1676,241 -2298,-380 -35,-35 -71,-71 -106,-106 -44,-44 -86,-90 -125,-138 -119,-98 -224,-208 -314,-327 -68,-53 -133,-109 -195,-171 -299,-299 -599,-599 -898,-898l-312 -268c-66,-56 -127,-116 -185,-181l-402 -446 -832 -697 -793 -607 -351 -220c-77,-48 -151,-101 -220,-160l-318 -265c-46,-39 -91,-79 -134,-122l-318 -318c-696,-696 -772,-1776 -228,-2556l-116 -116c-107,-107 -202,-227 -282,-355l-81 -70c-85,-73 -160,-150 -233,-235l-36 -27c-158,-118 -293,-255 -405,-405l-61 -43c-150,-107 -280,-231 -391,-367 -17,-14 -34,-29 -51,-44 -592,-351 -965,-989 -978,-1680 -265,-339 -423,-766 -423,-1231l0 -106c0,-191 27,-376 77,-551l-6999 -6230z"/>
  <circle class="fil2" transform="matrix(-1.09996 0.0093767 -0.0093767 -1.09996 30505.2 33603)" r="8996"/>
  <path class="fil3" d="M30630 42445c-4896,42 -8899,-3893 -8940,-8789 -42,-4896 3893,-8899 8789,-8940 4896,-42 8899,3893 8940,8789 42,4896 -3893,8899 -8789,8940z"/>
  <path class="fil4" d="M22983 27124c1796,-2072 4244,-3337 8455,-3373 4211,-36 8862,4423 8897,8571 35,4148 -1121,6590 -3012,8410l-1851 -1757c244,-825 -67,-1745 -823,-2240 -144,-94 -288,-189 -433,-283l-168 -124c-148,-109 -300,-190 -471,-257 -152,-124 -303,-247 -457,-368l-135 -132c-94,-92 -197,-175 -307,-247l-154 -101 -286 -281c-100,-98 -203,-174 -314,-257l-106 -111c-123,-212 -288,-405 -493,-566l-179 -141 -33 -33c-84,-110 -162,-212 -262,-310l-640 -630c-44,-43 -90,-85 -138,-124 -123,-146 -268,-276 -436,-386l-37 -24c-42,-51 -88,-100 -136,-148l-403 -396c-52,-53 -107,-103 -165,-150 -28,-33 -57,-66 -88,-98 -95,-139 -207,-268 -337,-381 -32,-35 -66,-69 -100,-102 -27,-27 -54,-53 -82,-79 -34,-36 -70,-71 -107,-105 -17,-18 -34,-36 -52,-54 -89,-87 -178,-175 -267,-262 -9,-9 -19,-18 -28,-27 -17,-17 -34,-34 -52,-51 -367,-375 -880,-605 -1446,-600 -129,1 -256,15 -378,39l-2976 -2824z"/>
  <path class="fil5" d="M23738 27862c1609,-1906 4009,-3124 6699,-3147 4896,-42 8899,3893 8940,8789 22,2585 -1065,4920 -2816,6556l-12824 -12197z"/>
 </g>
</svg>
