<?xml version="1.0" encoding="UTF-8"?>
<!DOCTYPE svg PUBLIC "-//W3C//DTD SVG 1.1//EN" "http://www.w3.org/Graphics/SVG/1.1/DTD/svg11.dtd">
<!-- Creator: CorelDRAW X6 -->
<svg xmlns="http://www.w3.org/2000/svg" xml:space="preserve" width="100%" height="100%" version="1.1" style="shape-rendering:geometricPrecision; text-rendering:geometricPrecision; image-rendering:optimizeQuality; fill-rule:evenodd; clip-rule:evenodd"
viewBox="0 0 5940 8410" preserveAspectRatio="none"
 xmlns:xlink="http://www.w3.org/1999/xlink">
 <defs>
  <style type="text/css">
   <![CDATA[
    .str0 {stroke:#2B2A29;stroke-width:100}
    .fil2 {fill:#737373}
    .fil4 {fill:#FEFEFE}
    .fil3 {fill:url(#id0)}
    .fil5 {fill:url(#id1)}
    .fil0 {fill:url(#id2)}
    .fil1 {fill:url(#id3)}
   ]]>
  </style>
  <radialGradient id="id0" gradientUnits="userSpaceOnUse" cx="3055.46" cy="3358.05" r="886.502" fx="3055.46" fy="3358.05">
   <stop offset="0" style="stop-color:#898989"/>
   <stop offset="0.670588" style="stop-color:#615D87"/>
   <stop offset="1" style="stop-color:#393185"/>
  </radialGradient>
  <radialGradient id="id1" gradientUnits="userSpaceOnUse" cx="3155.83" cy="3238.63" r="781.991" fx="3155.83" fy="3238.63">
   <stop offset="0" style="stop-color:#FEFEFE"/>
   <stop offset="0.670588" style="stop-color:#FFEF7F"/>
   <stop offset="1" style="stop-color:#FFE100"/>
  </radialGradient>
  <radialGradient id="id2" gradientUnits="userSpaceOnUse" cx="2963.77" cy="3398.12" r="2774.48" fx="2963.77" fy="3398.12">
   <stop offset="0" style="stop-color:#898989"/>
   <stop offset="0.321569" style="stop-color:#615D87"/>
   <stop offset="1" style="stop-color:#393185"/>
  </radialGradient>
  <radialGradient id="id3" gradientUnits="userSpaceOnUse" cx="2545.94" cy="3954.98" r="2302.75" fx="2545.94" fy="3954.98">
   <stop offset="0" style="stop-color:#FEFEFE"/>
   <stop offset="0.321569" style="stop-color:#FFF17F"/>
   <stop offset="1" style="stop-color:#FFE500"/>
  </radialGradient>
 </defs>
 <g id="Layer_x0020_1">
  <metadata id="CorelCorpID_0Corel-Layer"/>
  <polygon class="fil0 str0" points="3053,1123 2597,2328 1608,1958 2020,2878 810,3376 2005,3831 1565,4746 2571,4408 3059,6672 3513,4424 4513,4757 4105,3810 5297,3376 4095,2905 4507,1984 3507,2318 "/>
  <path class="fil1 str0" d="M1657 2067l368 812 -1210 498 1194 455 -439 915 1005 -339 488 2264 454 -2242 904 291 -667 -681c-4,0 -9,0 -13,0 -38,0 -74,-11 -104,-29l-105 0c-16,0 -31,-2 -46,-5 -10,-2 -20,-4 -30,-7 -75,37 -168,24 -230,-38 -4,-4 -7,-7 -11,-11 -4,-4 -9,-9 -13,-14 -12,-10 -22,-21 -31,-33 -7,-5 -13,-11 -19,-17 -30,-30 -60,-60 -90,-90l-31 -27c-7,-6 -13,-12 -19,-18l-40 -45 -83 -70 -79 -61 -35 -22c-8,-5 -15,-10 -22,-16l-32 -26c-5,-4 -9,-8 -13,-12l-32 -32c-70,-70 -77,-178 -23,-256l-12 -12c-11,-11 -20,-23 -28,-36l-8 -7c-9,-7 -16,-15 -23,-24l-4 -3c-16,-12 -29,-26 -40,-41l-6 -4c-15,-11 -28,-23 -39,-37 -2,-1 -3,-3 -5,-4 -59,-35 -96,-99 -98,-168 -27,-34 -42,-77 -42,-123l0 -11c0,-19 3,-38 8,-55l-700 -623z"/>
  <circle class="fil2" transform="matrix(-1.09996 0.0093767 -0.0093767 -1.09996 3050.52 3360.3)" r="900"/>
  <path class="fil3" d="M3063 4245c-490,4 -890,-389 -894,-879 -4,-490 389,-890 879,-894 490,-4 890,389 894,879 4,490 -389,890 -879,894z"/>
  <path class="fil4" d="M2298 2712c180,-207 424,-334 846,-337 421,-4 886,442 890,857 4,415 -112,659 -301,841l-185 -176c24,-82 -7,-174 -82,-224 -14,-9 -29,-19 -43,-28l-17 -12c-15,-11 -30,-19 -47,-26 -15,-12 -30,-25 -46,-37l-13 -13c-9,-9 -20,-18 -31,-25l-15 -10 -29 -28c-10,-10 -20,-17 -31,-26l-11 -11c-12,-21 -29,-41 -49,-57l-18 -14 -3 -3c-8,-11 -16,-21 -26,-31l-64 -63c-4,-4 -9,-8 -14,-12 -12,-15 -27,-28 -44,-39l-4 -2c-4,-5 -9,-10 -14,-15l-40 -40c-5,-5 -11,-10 -17,-15 -3,-3 -6,-7 -9,-10 -9,-14 -21,-27 -34,-38 -3,-4 -7,-7 -10,-10 -3,-3 -5,-5 -8,-8 -3,-4 -7,-7 -11,-10 -2,-2 -3,-4 -5,-5 -9,-9 -18,-17 -27,-26 -1,-1 -2,-2 -3,-3 -2,-2 -3,-3 -5,-5 -37,-37 -88,-61 -145,-60 -13,0 -26,1 -38,4l-298 -282z"/>
  <path class="fil5" d="M2374 2786c161,-191 401,-312 670,-315 490,-4 890,389 894,879 2,258 -106,492 -282,656l-1282 -1220z"/>
 </g>
</svg>
