<?xml version="1.0" encoding="UTF-8"?>
<!DOCTYPE svg PUBLIC "-//W3C//DTD SVG 1.1//EN" "http://www.w3.org/Graphics/SVG/1.1/DTD/svg11.dtd">
<!-- Creator: CorelDRAW X6 -->
<svg xmlns="http://www.w3.org/2000/svg" xml:space="preserve" width="100%" height="100%" version="1.1" style="shape-rendering:geometricPrecision; text-rendering:geometricPrecision; image-rendering:optimizeQuality; fill-rule:evenodd; clip-rule:evenodd"
viewBox="0 0 5940 8410"  preserveAspectRatio="none"
 xmlns:xlink="http://www.w3.org/1999/xlink">
 <defs>
  <style type="text/css">
   <![CDATA[
    .str0 {stroke:#2B2A29;stroke-width:100}
    .fil1 {fill:#737373}
    .fil2 {fill:url(#id0)}
    .fil0 {fill:url(#id1)}
   ]]>
  </style>
  <radialGradient id="id0" gradientUnits="userSpaceOnUse" cx="3055.39" cy="3357.82" r="886.5" fx="3055.39" fy="3357.82">
   <stop offset="0" style="stop-color:#898989"/>
   <stop offset="0.670588" style="stop-color:#615D87"/>
   <stop offset="1" style="stop-color:#393185"/>
  </radialGradient>
  <radialGradient id="id1" gradientUnits="userSpaceOnUse" cx="2963.7" cy="3397.9" r="2774.48" fx="2963.7" fy="3397.9">
   <stop offset="0" style="stop-color:#898989"/>
   <stop offset="0.321569" style="stop-color:#615D87"/>
   <stop offset="1" style="stop-color:#393185"/>
  </radialGradient>
 </defs>
 <g id="Layer_x0020_1">
  <metadata id="CorelCorpID_0Corel-Layer"/>
  <polygon class="fil0 str0" points="3053,1123 2597,2328 1608,1957 2020,2878 810,3376 2004,3831 1565,4746 2571,4408 3059,6672 3513,4423 4513,4757 4105,3810 5297,3376 4095,2905 4507,1984 3507,2317 "/>
  <circle class="fil1" transform="matrix(-1.09996 0.0093767 -0.0093767 -1.09996 3050.45 3360.07)" r="900"/>
  <path class="fil2" d="M3063 4244c-490,4 -890,-389 -894,-879 -4,-490 389,-890 879,-894 490,-4 890,389 894,879 4,490 -389,890 -879,894z"/>
 </g>
</svg>
