<?xml version="1.0" encoding="UTF-8"?>
<!DOCTYPE svg PUBLIC "-//W3C//DTD SVG 1.1//EN" "http://www.w3.org/Graphics/SVG/1.1/DTD/svg11.dtd">
<!-- Creator: CorelDRAW X6 -->
<svg xmlns="http://www.w3.org/2000/svg" xml:space="preserve" width="594mm" height="841mm" version="1.1" style="shape-rendering:geometricPrecision; text-rendering:geometricPrecision; image-rendering:optimizeQuality; fill-rule:evenodd; clip-rule:evenodd"
viewBox="0 0 59400 84100"
 xmlns:xlink="http://www.w3.org/1999/xlink">
 <defs>
  <style type="text/css">
   <![CDATA[
    .str0 {stroke:#2B2A29;stroke-width:1000}
    .fil1 {fill:#737373}
    .fil2 {fill:url(#id0)}
    .fil0 {fill:url(#id1)}
   ]]>
  </style>
  <radialGradient id="id0" gradientUnits="userSpaceOnUse" cx="30553.9" cy="33578.2" r="8865.01" fx="30553.9" fy="33578.2">
   <stop offset="0" style="stop-color:#898989"/>
   <stop offset="0.670588" style="stop-color:#615D87"/>
   <stop offset="1" style="stop-color:#393185"/>
  </radialGradient>
  <radialGradient id="id1" gradientUnits="userSpaceOnUse" cx="29637" cy="33979" r="27744.8" fx="29637" fy="33979">
   <stop offset="0" style="stop-color:#898989"/>
   <stop offset="0.321569" style="stop-color:#615D87"/>
   <stop offset="1" style="stop-color:#393185"/>
  </radialGradient>
 </defs>
 <g id="Layer_x0020_1">
  <metadata id="CorelCorpID_0Corel-Layer"/>
  <polygon class="fil0 str0" points="30534,11228 25971,23279 16076,19575 20203,28782 8102,33761 20045,38307 15652,47462 25707,44075 30587,66718 35126,44234 45127,47568 41052,38096 52967,33761 40947,29047 45074,19839 35073,23173 "/>
  <circle class="fil1" transform="matrix(-1.09996 0.0093767 -0.0093767 -1.09996 30504.5 33600.7)" r="8996"/>
  <path class="fil2" d="M30629 42443c-4896,42 -8899,-3893 -8940,-8789 -42,-4896 3893,-8899 8789,-8940 4896,-42 8899,3893 8940,8789 42,4896 -3893,8899 -8789,8940z"/>
 </g>
</svg>
